<svg width="32" height="32" viewBox="0 0 32 32" fill="none" xmlns="http://www.w3.org/2000/svg">
<path d="M6.82657 22.4L4.69324 27.36L9.65324 25.2267C8.53324 24.4267 7.57324 23.4667 6.82657 22.4Z" fill="#FFCE31"/>
<path d="M25.1734 9.6L27.3067 4.64L22.4 6.77333C23.4667 7.57333 24.4267 8.53333 25.1734 9.6Z" fill="#FFCE31"/>
<path d="M5.01333 14.0267L0 16L5.01333 17.9733C4.85333 17.3333 4.8 16.6933 4.8 16C4.8 15.3067 4.85333 14.6667 5.01333 14.0267Z" fill="#FFCE31"/>
<path d="M26.9867 17.9733L32 16L26.9867 14.0267C27.0934 14.6667 27.2 15.36 27.2 16C27.2 16.6933 27.1467 17.3333 26.9867 17.9733Z" fill="#FFCE31"/>
<path d="M9.60014 6.82666L4.64014 4.69333L6.77347 9.65333C7.57347 8.53333 8.53347 7.57333 9.60014 6.82666Z" fill="#FFCE31"/>
<path d="M22.4 25.1733L27.36 27.3067L25.2267 22.3467C24.4267 23.4667 23.4667 24.4267 22.4 25.1733Z" fill="#FFCE31"/>
<path d="M17.9733 5.01333L15.9999 0L14.0266 5.01333C14.6666 4.90667 15.3599 4.8 15.9999 4.8C16.6399 4.8 17.3333 4.85333 17.9733 5.01333Z" fill="#FFCE31"/>
<path d="M14.0266 26.9866L15.9999 32L17.9733 26.9866C17.3333 27.1466 16.6933 27.2 15.9999 27.2C15.3066 27.2 14.6666 27.1466 14.0266 26.9866Z" fill="#FFCE31"/>
<path d="M16 26.1333C21.5965 26.1333 26.1334 21.5965 26.1334 16C26.1334 10.4035 21.5965 5.86667 16 5.86667C10.4035 5.86667 5.8667 10.4035 5.8667 16C5.8667 21.5965 10.4035 26.1333 16 26.1333Z" fill="#FFCE31"/>
</svg>
